HIERARCHY
ROOT Hips
{
	OFFSET 0.000000 8.830580 0.000000
	CHANNELS 6 Xposition Yposition Zposition Zrotation Yrotation Xrotation 
	JOINT Spine
	{
		OFFSET 0.000000 0.010000 0.000000
		CHANNELS 3 Zrotation Yrotation Xrotation
		JOINT Spine1
		{
			OFFSET 0.000000 2.459130 0.000000
			CHANNELS 3 Zrotation Yrotation Xrotation
			JOINT Neck
			{
				OFFSET 0.000000 2.484630 0.000000
				CHANNELS 3 Zrotation Yrotation Xrotation
				JOINT Head_virtual
				{
					OFFSET 0.000000 0.000000 0.000000
					CHANNELS 3 Zrotation Yrotation Xrotation
					JOINT Head
					{
						OFFSET 0.000000 0.927525 0.000000
						CHANNELS 3 Zrotation Yrotation Xrotation
						End Site
						{
							OFFSET 0.000000 0.000000 0.000000
						}
					}
				}
				JOINT LeftUpArm_virtual
				{
					OFFSET 0.000000 0.000000 0.000000
					CHANNELS 3 Zrotation Yrotation Xrotation
					JOINT LeftUpArm
					{
						OFFSET 1.248820 0.000000 0.000000
						CHANNELS 3 Zrotation Yrotation Xrotation
						JOINT LeftForeArm
						{
							OFFSET 2.597580 0.000000 0.000000
							CHANNELS 3 Zrotation Yrotation Xrotation
							JOINT LeftHand
							{
								OFFSET 2.455420 0.000000 0.000000
								CHANNELS 3 Zrotation Yrotation Xrotation
								End Site
								{
									OFFSET 0.000000 0.000000 0.000000
								}
							}
						}
					}
				}
				JOINT RightUpArm_virtual
				{
					OFFSET -0.000000 -0.000000 -0.000000
					CHANNELS 3 Zrotation Yrotation Xrotation
					JOINT RightUpArm
					{
						OFFSET -1.248820 -0.000000 -0.000000
						CHANNELS 3 Zrotation Yrotation Xrotation
						JOINT RightForeArm
						{
							OFFSET -2.597580 -0.000000 -0.000000
							CHANNELS 3 Zrotation Yrotation Xrotation
							JOINT RightHand
							{
								OFFSET -2.455420 -0.000000 -0.000000
								CHANNELS 3 Zrotation Yrotation Xrotation
								End Site
								{
									OFFSET 0.000000 0.000000 0.000000
								}
							}
						}
					}
				}
			}
		}
	}
	JOINT LeftUpLeg
	{
		OFFSET 1.271939 0.000000 0.000000
		CHANNELS 3 Zrotation Yrotation Xrotation
		JOINT LeftLowLeg
		{
			OFFSET 0.000000 -4.342910 0.000000
			CHANNELS 3 Zrotation Yrotation Xrotation
			JOINT LeftFoot
			{
				OFFSET 0.000000 -4.487670 0.000000
				CHANNELS 3 Zrotation Yrotation Xrotation
				JOINT LeftToeBase
				{
					OFFSET 0.000000 0.000000 1.515070
					CHANNELS 3 Zrotation Yrotation Xrotation
					End Site
					{
						OFFSET 0.000000 0.000000 0.000000
					}
				}
			}
		}
	}
	JOINT RightUpLeg
	{
		OFFSET -1.271939 0.000000 0.000000
		CHANNELS 3 Zrotation Yrotation Xrotation
		JOINT RightLowLeg
		{
			OFFSET 0.000000 -4.342910 0.000000
			CHANNELS 3 Zrotation Yrotation Xrotation
			JOINT RightFoot
			{
				OFFSET 0.000000 -4.487670 0.000000
				CHANNELS 3 Zrotation Yrotation Xrotation
				JOINT RightToeBase
				{
					OFFSET 0.000000 0.000000 1.515070
					CHANNELS 3 Zrotation Yrotation Xrotation
					End Site
					{
						OFFSET 0.000000 0.000000 0.000000
					}
				}
			}
		}
	}
}
MOTION
Frames: 8
Frame Time: 0.041667
-17.610479 9.144184 43.953104 -175.042607 1.564483 -176.768704 2.595487 0.359057 -5.357666 4.805528 0.867613 -11.958491 0.000000 0.000000 0.000000 -9.527080 -5.325641 26.492465 13.039674 7.228884 -88.585238 -24.505400 8.070970 -8.734750 11.531500 -14.412900 -25.669800 0.000000 -5.028400 0.000000 29.519300 9.838400 29.705601 22.148500 -4.858090 0.217425 -8.424260 4.552750 -53.676399 0.000000 16.641399 0.000000 -25.477900 -13.623600 47.405300 1.455843 0.541395 -2.974043 0.000000 0.000000 8.294750 -12.531493 7.875862 0.556853 0.000000 0.000000 -29.136600 7.388297 6.283206 -2.780053 0.000000 0.000000 9.698990 8.725037 -16.405729 5.811778 0.000000 0.000000 -32.506599 
-17.608198 9.143897 43.952864 -175.061159 1.554166 -176.747317 2.579075 0.327647 -5.391918 4.763021 0.840280 -11.969907 0.000000 0.000000 0.000000 -9.635882 -5.175963 26.622686 12.931632 7.186909 -88.536180 -24.479300 8.067150 -8.768720 11.579000 -14.454500 -25.710400 0.000000 -5.032420 0.000000 29.448299 9.554810 29.715900 22.169701 -4.755870 0.294218 -8.370540 4.612220 -53.501499 0.000000 16.677601 0.000000 -25.524000 -13.956500 47.515800 1.450284 0.465711 -3.030650 0.000000 0.000000 8.363800 -12.554791 7.925332 0.524409 0.000000 0.000000 -29.133400 7.379940 6.215562 -2.824024 0.000000 0.000000 9.742550 8.725328 -16.348161 5.794272 0.000000 0.000000 -32.542601 
-17.606039 9.143707 43.950683 -175.060806 1.572794 -176.768359 2.549428 0.320220 -5.421675 4.759036 0.835270 -11.934887 0.000000 0.000000 0.000000 -9.671091 -5.060791 26.686540 12.876551 7.193515 -88.444996 -24.431499 8.059570 -8.807540 11.618800 -14.472500 -25.670000 0.000000 -5.115400 0.000000 29.002899 9.540270 29.729601 22.182301 -4.716470 0.285356 -8.340830 4.738350 -53.326500 0.000000 16.643900 0.000000 -25.566601 -14.216300 47.470100 1.460977 0.466414 -2.999889 0.000000 0.000000 8.380510 -12.615846 7.933775 0.479994 0.000000 0.000000 -29.105300 7.394214 6.292611 -2.818364 0.000000 0.000000 9.800630 8.751343 -16.379193 5.755510 0.000000 0.000000 -32.544300 
-17.602762 9.143824 43.947600 -175.061857 1.604948 -176.771458 2.453918 0.321239 -5.491327 4.836724 0.844025 -11.864806 0.000000 0.000000 0.000000 -9.672666 -4.973601 26.728228 12.864279 7.228982 -88.371447 -24.401100 8.030680 -8.858430 11.670100 -14.484400 -25.534401 0.000000 -5.160630 0.000000 28.471100 9.641750 29.441700 22.196899 -4.687940 0.298290 -8.349090 4.810110 -53.142899 0.000000 16.625601 0.000000 -25.461100 -14.423500 47.504002 1.477113 0.521731 -2.966583 0.000000 0.000000 8.366510 -12.565860 7.923956 0.496440 0.000000 0.000000 -29.146700 7.414022 6.309945 -2.800781 0.000000 0.000000 9.806290 8.714015 -16.380967 5.763435 0.000000 0.000000 -32.560499 
-17.600925 9.143892 43.947106 -175.069136 1.581650 -176.757666 2.361930 0.304598 -5.505678 4.922237 0.838737 -11.873190 0.000000 0.000000 0.000000 -9.651229 -4.923197 26.745145 12.862648 7.270833 -88.307457 -24.432199 7.972690 -8.851180 11.775900 -14.532200 -25.770000 0.000000 -5.046680 0.000000 28.345301 9.524310 29.711901 22.205799 -4.712760 0.371539 -8.386450 4.897180 -53.171600 0.000000 16.605600 0.000000 -25.457701 -14.603200 47.515800 1.480564 0.665725 -3.008383 0.000000 0.000000 8.416120 -12.572072 7.788011 0.504958 0.000000 0.000000 -29.123600 7.415527 6.162071 -2.836250 0.000000 0.000000 9.850990 8.693252 -16.271241 5.766914 0.000000 0.000000 -32.586300 
-17.598622 9.143950 43.946602 -175.072270 1.572321 -176.744995 2.237844 0.296975 -5.496314 5.044844 0.847651 -11.910022 0.000000 0.000000 0.000000 -9.619904 -4.825873 26.723321 12.957412 7.321389 -88.194717 -24.408600 7.910330 -8.798570 11.854200 -14.502600 -25.473101 0.000000 -5.065650 0.000000 28.072300 9.773740 29.779301 22.193899 -4.738850 0.418192 -8.369040 4.963430 -53.232700 0.000000 16.712000 0.000000 -25.452600 -14.869400 47.698200 1.489086 0.613525 -3.009413 0.000000 0.000000 8.399230 -12.610130 7.829160 0.496023 0.000000 0.000000 -29.140500 7.425563 6.102910 -2.851715 0.000000 0.000000 9.863320 8.663046 -16.228056 5.776802 0.000000 0.000000 -32.589600 
-17.596300 9.143992 43.945207 -175.075999 1.520734 -176.724666 2.105672 0.274062 -5.495663 5.185711 0.842516 -11.955312 0.000000 0.000000 0.000000 -9.559718 -4.796006 26.700893 13.012243 7.388249 -88.119206 -24.427700 7.837430 -8.779360 11.960600 -14.531800 -25.571501 0.000000 -5.010800 0.000000 28.043200 9.876680 30.133600 22.153900 -4.789810 0.423336 -8.368720 5.022460 -53.135200 0.000000 16.720699 0.000000 -25.585199 -14.943700 47.897400 1.502883 0.528406 -3.009138 0.000000 0.000000 8.363430 -12.621958 7.858370 0.495453 0.000000 0.000000 -29.114000 7.437533 6.156726 -2.870359 0.000000 0.000000 9.880650 8.688500 -16.300871 5.742846 0.000000 0.000000 -32.527800 
-17.593589 9.143961 43.944501 -175.080576 1.440346 -176.708293 1.962421 0.229073 -5.480734 5.344594 0.816176 -11.995236 0.000000 0.000000 0.000000 -9.487880 -4.782660 26.638922 13.069978 7.459761 -88.061650 -24.429600 7.785340 -8.786420 12.017800 -14.504200 -25.431299 0.000000 -5.056970 0.000000 28.019199 10.006400 29.956400 22.127100 -4.802710 0.421234 -8.406910 5.028290 -53.038502 0.000000 16.710400 0.000000 -25.659000 -14.959200 47.989101 1.520226 0.521860 -3.027886 0.000000 0.000000 8.350730 -12.584440 7.804490 0.529908 0.000000 0.000000 -29.160600 7.455149 6.215992 -2.889060 0.000000 0.000000 9.899610 8.722814 -16.404632 5.702433 0.000000 0.000000 -32.551500 
